<?xml version="1.0" standalone="no"?>
<!DOCTYPE svg PUBLIC "-//W3C//DTD SVG 20010904//EN"
 "http://www.w3.org/TR/2001/REC-SVG-20010904/DTD/svg10.dtd">
<svg version="1.0" xmlns="http://www.w3.org/2000/svg"
 width="1718.000000pt" height="1533.000000pt" viewBox="0 0 1718.000000 1533.000000"
 preserveAspectRatio="xMidYMid meet">

<g transform="translate(0.000000,1533.000000) scale(0.100000,-0.100000)"
fill="#000000" stroke="none">
<path d="M7200 13518 c-47 -11 -87 -22 -89 -24 -3 -2 20 -105 50 -229 55 -230
60 -240 98 -216 12 8 12 18 -2 72 -9 35 -13 67 -9 70 4 4 41 14 83 23 41 9 92
28 113 42 89 61 88 201 -3 261 -43 29 -122 30 -241 1z m206 -46 c65 -52 57
-145 -16 -182 -34 -18 -159 -49 -164 -42 -9 16 -48 203 -43 208 12 12 105 32
152 33 33 0 57 -5 71 -17z"/>
<path d="M6065 13099 c-90 -44 -137 -118 -138 -214 -2 -230 269 -330 425 -157
32 36 55 79 46 87 -1 1 -13 6 -25 9 -16 5 -23 2 -28 -14 -21 -67 -143 -129
-215 -110 -85 23 -150 102 -150 182 0 107 106 198 215 185 37 -4 44 -2 49 16
8 32 -1 37 -72 37 -46 -1 -79 -7 -107 -21z"/>
<path d="M8670 13099 c-74 -4 -205 -10 -290 -13 -223 -8 -399 -27 -425 -46 -5
-4 -26 -8 -46 -8 -55 -2 -330 -66 -494 -115 -110 -34 -483 -168 -635 -229
-136 -54 -850 -404 -850 -416 0 -4 -15 -13 -32 -20 -69 -27 -208 -117 -433
-281 -278 -203 -500 -408 -639 -591 -27 -36 -97 -124 -155 -195 -116 -143
-151 -190 -151 -203 0 -5 -27 -41 -60 -81 -33 -39 -74 -95 -92 -124 -17 -28
-40 -59 -50 -67 -10 -8 -56 -89 -102 -180 -46 -91 -95 -187 -109 -215 -43 -85
-73 -156 -107 -255 -17 -52 -35 -99 -40 -105 -4 -5 -15 -41 -24 -79 -9 -38
-23 -81 -31 -97 -8 -15 -15 -38 -15 -51 0 -13 -20 -90 -45 -172 -30 -99 -45
-168 -45 -205 0 -31 -4 -83 -10 -116 -13 -81 -20 -304 -10 -310 16 -10 40 8
46 34 39 170 156 450 203 483 10 7 28 33 41 58 37 72 239 338 322 423 42 44
79 85 81 91 3 6 54 70 114 141 60 72 129 157 155 190 25 33 95 110 154 172 60
61 125 130 144 153 19 22 45 51 58 64 12 13 22 27 22 30 0 8 37 44 252 248
204 194 607 451 764 489 27 6 85 29 129 51 44 22 163 82 265 133 239 120 261
128 640 248 221 71 302 92 415 112 50 9 169 31 265 50 96 19 234 45 305 59
259 50 388 60 940 72 227 5 307 3 425 -10 211 -24 435 -62 455 -76 6 -4 28
-10 50 -13 139 -21 174 -28 210 -46 22 -10 65 -22 95 -26 69 -8 293 -81 340
-110 19 -12 55 -28 80 -37 25 -8 88 -30 140 -48 100 -34 106 -36 184 -69 27
-12 54 -21 60 -21 6 0 56 -22 111 -50 55 -27 109 -50 120 -50 11 0 26 -9 33
-20 7 -12 16 -19 21 -16 4 3 23 -6 41 -19 19 -14 40 -25 47 -25 7 0 21 -7 31
-15 58 -51 135 -107 214 -158 23 -14 26 -14 22 -2 -4 8 -3 15 1 15 10 0 88
-80 109 -112 11 -17 23 -25 32 -21 10 4 61 -39 152 -128 159 -157 263 -277
405 -466 120 -162 148 -204 197 -298 84 -160 123 -231 142 -258 11 -16 43 -79
70 -140 28 -62 70 -157 94 -212 57 -127 159 -431 174 -515 6 -36 22 -101 35
-146 14 -44 34 -128 45 -185 11 -57 25 -108 30 -113 5 -5 7 0 3 13 -4 15 -1
21 11 21 9 0 16 -7 16 -15 0 -19 16 -20 23 -1 8 19 10 237 4 256 -3 8 -5 31
-5 50 0 19 -2 42 -5 50 -2 8 -10 49 -15 90 -6 41 -32 161 -57 265 -26 105 -48
208 -50 230 -3 46 -22 130 -36 160 -9 20 -38 106 -144 420 -80 237 -79 234
-124 272 -22 20 -41 44 -41 54 0 10 -4 20 -9 23 -4 3 -11 24 -15 46 -4 26 -16
50 -31 63 -14 12 -47 56 -73 99 -70 113 -195 295 -246 358 -25 30 -65 81 -88
114 -173 235 -214 284 -417 485 -219 216 -387 360 -541 462 -167 110 -226 146
-250 154 -14 4 -32 13 -40 20 -8 7 -37 23 -65 36 -27 13 -69 36 -93 52 -130
87 -684 301 -899 346 -54 12 -141 32 -193 46 -117 29 -173 39 -370 65 -303 39
-527 47 -840 29z"/>
<path d="M5036 12437 c-17 -12 -16 -22 18 -202 20 -104 34 -190 32 -192 -2 -2
-83 24 -182 58 -180 61 -211 65 -208 26 2 -19 285 -347 300 -347 6 0 17 7 24
15 15 18 22 7 -108 159 -51 59 -91 110 -89 112 2 2 72 -19 155 -48 99 -35 154
-49 161 -43 6 6 -1 67 -20 165 -16 85 -27 159 -26 164 2 5 52 -48 112 -118 60
-69 112 -126 116 -126 3 0 14 8 23 19 16 18 11 26 -125 182 -181 211 -161 192
-183 176z"/>
<path d="M9504 11948 c-4 -7 9 -27 33 -47 54 -49 96 -142 88 -194 -8 -43 -51
-111 -128 -201 -145 -170 -343 -392 -429 -483 -54 -56 -98 -106 -98 -112 0 -6
-19 -24 -42 -41 -23 -17 -49 -43 -59 -58 -25 -40 -244 -273 -287 -304 -20 -15
-48 -33 -62 -40 -49 -23 -90 -70 -90 -102 0 -80 60 -222 103 -245 33 -18 57
-8 57 24 0 28 32 65 55 65 9 0 18 6 21 14 3 8 20 20 37 27 18 7 59 25 92 40
33 15 82 35 109 44 26 8 114 48 195 88 162 79 201 97 214 97 4 0 37 20 71 45
37 26 75 45 90 45 14 0 26 5 26 10 0 6 8 10 18 10 11 0 27 9 37 20 10 11 26
20 35 20 10 0 28 8 41 18 13 10 54 33 91 50 43 20 69 39 73 53 5 15 37 35 104
66 53 25 102 50 110 56 28 24 196 87 228 87 46 0 88 -31 118 -88 14 -26 29
-54 34 -62 5 -8 13 -28 18 -45 7 -24 15 -31 39 -33 19 -2 43 -15 60 -33 15
-16 33 -29 39 -29 6 0 22 -12 36 -26 25 -27 136 -104 149 -104 4 0 18 -8 31
-19 13 -10 47 -22 75 -25 l51 -7 51 56 c47 54 51 61 54 118 3 59 2 61 -29 79
-17 11 -57 50 -89 89 -31 38 -60 69 -66 69 -8 0 -57 37 -167 127 -62 50 -90
63 -140 63 -35 0 -58 7 -85 25 -20 14 -43 25 -50 25 -6 0 -66 29 -132 65 -65
36 -129 65 -141 65 -39 0 -27 -31 37 -95 45 -46 62 -71 67 -98 5 -34 4 -37
-17 -37 -23 0 -244 -91 -575 -237 -185 -82 -290 -123 -311 -123 -38 0 -5 45
105 143 66 59 123 107 128 107 5 0 35 27 68 60 33 33 64 60 70 60 5 0 35 24
65 54 116 115 216 204 232 207 20 5 116 124 124 154 8 33 -48 127 -123 205
-35 36 -79 92 -97 125 -20 36 -46 68 -65 79 -32 18 -33 18 -61 -3 -38 -27 -63
-26 -130 5 -87 41 -99 44 -106 32z"/>
<path d="M4005 11370 c-9 -10 -14 -23 -11 -29 4 -5 62 -48 130 -95 141 -97
172 -135 161 -192 -4 -22 -22 -53 -45 -78 -35 -37 -43 -41 -89 -41 -46 0 -59
6 -185 93 l-135 92 -17 -25 c-9 -14 -15 -27 -13 -29 38 -31 250 -172 275 -182
124 -52 254 45 254 191 0 94 -19 117 -196 238 -108 74 -112 76 -129 57z"/>
<path d="M10300 10673 c-25 -3 -49 -8 -54 -14 -14 -13 -50 -11 -64 3 -10 10
-14 9 -18 -7 -7 -24 -65 -62 -159 -103 -107 -47 -252 -127 -445 -247 -321
-198 -315 -195 -354 -195 -26 0 -54 11 -94 37 -56 37 -59 37 -142 35 -56 -2
-90 -8 -101 -18 -8 -8 -27 -14 -41 -14 -14 0 -31 -6 -37 -14 -9 -11 1 -25 51
-70 l63 -56 -1 -167 c0 -93 -4 -191 -8 -220 -8 -48 -6 -54 27 -105 20 -29 47
-64 62 -78 17 -16 25 -34 25 -58 0 -28 8 -42 47 -76 25 -22 54 -44 65 -48 10
-4 18 -11 18 -16 0 -13 103 -7 108 6 2 7 10 12 17 12 8 0 22 13 31 30 19 31
65 56 88 47 10 -4 17 3 21 24 6 25 19 35 83 66 61 30 86 37 124 34 41 -2 47 0
50 20 2 18 15 25 68 40 85 24 110 24 110 1 0 -10 -4 -22 -9 -27 -6 -6 -6 -41
0 -90 5 -44 8 -107 7 -140 l-3 -60 47 3 c37 3 51 -1 68 -18 21 -21 21 -47 3
-115 -5 -19 -5 -19 14 -2 20 18 69 23 75 9 2 -5 20 -12 41 -15 30 -5 40 -2 50
14 6 10 22 19 35 19 15 0 28 10 40 31 9 18 46 72 80 121 68 96 91 142 154 308
100 264 136 424 145 640 4 113 9 159 20 171 19 22 19 89 1 125 -8 16 -21 43
-29 59 -12 24 -29 35 -85 55 -39 14 -84 35 -101 48 -17 12 -35 21 -40 20 -4
-1 -28 -3 -53 -5z m-120 -273 c0 -87 -51 -291 -113 -450 -60 -154 -82 -190
-116 -190 -14 0 -36 -6 -46 -14 -11 -8 -74 -35 -140 -61 -66 -26 -159 -67
-207 -91 -133 -67 -124 -75 -133 132 -5 125 -4 179 4 187 20 20 12 46 -24 74
-19 15 -35 35 -35 44 0 22 58 74 170 151 131 89 156 104 240 144 255 121 303
139 378 143 21 1 22 -3 22 -69z"/>
<path d="M5986 10472 c-30 -37 -99 -123 -153 -192 -55 -69 -135 -157 -179
-197 -43 -39 -130 -118 -192 -175 -158 -143 -200 -177 -337 -270 -66 -45 -147
-104 -180 -133 -98 -84 -160 -127 -355 -245 -102 -61 -259 -160 -350 -220 -91
-60 -201 -130 -245 -155 -45 -25 -132 -85 -195 -132 -63 -47 -156 -113 -206
-148 -50 -35 -133 -102 -185 -149 -52 -47 -130 -117 -174 -155 -84 -71 -386
-378 -491 -497 -267 -305 -442 -608 -527 -914 -103 -372 -118 -545 -72 -840
20 -128 19 -123 27 -135 3 -5 9 -26 12 -45 13 -64 88 -294 117 -358 16 -35 29
-66 29 -70 0 -18 98 -198 121 -223 14 -16 32 -43 40 -61 13 -33 94 -149 123
-178 272 -272 308 -301 444 -368 53 -26 99 -50 102 -54 13 -16 130 -70 195
-89 39 -11 93 -27 120 -35 87 -26 157 -36 169 -24 8 8 3 9 -18 4 -24 -6 -28
-4 -23 9 5 13 -27 32 -146 91 -84 41 -172 86 -196 100 -24 14 -60 32 -80 41
-53 23 -78 39 -111 69 -16 14 -31 26 -33 26 -12 0 -145 126 -192 182 -45 54
-106 190 -130 293 -30 130 -41 440 -21 607 24 203 112 490 195 633 36 63 183
282 235 350 45 60 119 135 132 135 6 0 17 -26 24 -57 6 -31 20 -81 30 -112 9
-31 32 -108 51 -171 113 -391 278 -800 411 -1021 28 -46 84 -142 125 -214 42
-71 117 -193 168 -270 50 -77 97 -150 104 -162 6 -13 34 -52 62 -89 27 -36 61
-88 74 -115 14 -27 36 -56 50 -65 13 -9 57 -55 97 -102 83 -100 95 -112 386
-408 261 -265 472 -437 812 -661 52 -35 111 -74 130 -89 78 -57 156 -103 176
-104 12 0 27 -7 34 -15 7 -8 20 -15 30 -15 10 0 23 -7 30 -15 7 -8 20 -15 30
-15 9 0 25 -9 34 -19 10 -11 24 -17 31 -15 6 3 37 -6 68 -20 31 -15 59 -26 62
-26 4 0 39 -16 79 -35 40 -19 85 -35 100 -35 14 0 26 -4 26 -10 0 -5 6 -10 14
-10 8 0 17 -7 20 -16 4 -12 14 -14 36 -9 17 4 30 3 29 -2 -4 -24 5 -33 44 -44
64 -17 96 -29 167 -61 35 -17 79 -32 97 -35 19 -3 36 -10 39 -14 3 -5 27 -9
54 -9 27 0 52 -4 55 -10 3 -5 17 -10 29 -10 13 0 68 -11 122 -25 140 -36 387
-82 534 -100 69 -8 150 -19 180 -25 59 -11 355 -22 363 -14 4 4 398 18 487 16
19 0 91 -1 160 -2 70 -1 144 3 165 9 68 18 311 61 377 66 35 3 95 12 133 20
39 8 99 19 135 25 36 6 94 19 130 29 36 11 96 24 133 30 150 25 457 134 486
172 7 11 26 19 42 19 16 0 43 8 62 19 18 10 53 22 78 26 51 9 120 42 251 121
51 31 118 69 148 84 30 15 78 40 105 55 28 16 68 38 90 49 22 12 61 35 85 51
25 17 53 35 62 40 34 21 192 132 245 173 55 41 83 52 83 32 0 -5 22 6 49 25
26 19 52 35 57 35 13 0 413 397 453 450 19 25 26 37 15 27 -11 -9 -26 -17 -32
-17 -19 0 -2 31 47 89 77 90 189 233 224 286 134 200 122 180 144 230 9 22 21
45 25 50 29 36 80 114 88 134 6 14 20 31 30 38 11 8 20 20 20 27 0 6 11 34 24
62 13 27 29 65 35 85 6 19 27 60 46 90 20 29 38 65 41 79 3 14 16 46 29 71 13
25 29 66 35 90 14 55 33 99 41 99 17 0 59 93 68 151 6 35 15 93 21 129 5 36
19 112 30 170 23 120 23 130 11 130 -5 0 -31 -44 -56 -97 -101 -210 -315 -559
-445 -723 -36 -47 -91 -119 -122 -160 -127 -174 -374 -439 -539 -579 -252
-214 -344 -286 -707 -551 -189 -138 -205 -149 -218 -149 -7 -1 -35 -17 -64
-36 -29 -19 -56 -35 -61 -35 -5 0 -53 -21 -107 -46 -53 -25 -124 -59 -158 -75
-34 -16 -65 -29 -69 -29 -5 0 -43 -16 -84 -36 -153 -72 -220 -98 -356 -140
-66 -20 -136 -47 -156 -60 -19 -14 -76 -33 -128 -44 -51 -11 -121 -33 -156
-49 -35 -16 -94 -36 -132 -45 -145 -33 -453 -78 -557 -82 -60 -2 -123 -8 -140
-14 -59 -19 -291 -37 -451 -35 -292 4 -336 8 -379 33 -23 14 -75 28 -135 38
-53 8 -130 24 -171 34 -41 10 -104 24 -140 30 -36 6 -76 15 -90 20 -28 9 -131
31 -265 56 -49 9 -94 19 -100 23 -5 4 -37 14 -70 21 -33 7 -64 16 -70 20 -5 3
-44 19 -85 34 -41 15 -84 31 -95 36 -11 5 -63 25 -115 46 -98 38 -183 80 -258
128 -24 15 -51 30 -60 33 -9 4 -42 22 -72 41 -57 37 -77 48 -225 127 -49 27
-92 51 -95 54 -3 3 -15 12 -27 19 -13 6 -33 18 -45 25 -122 67 -528 457 -528
505 0 11 -7 25 -15 32 -8 7 -15 18 -15 26 0 7 -18 28 -41 46 -38 31 -149 158
-149 171 0 4 -25 31 -55 60 -57 55 -73 97 -37 97 10 0 22 -3 26 -7 4 -5 31 -8
59 -8 43 0 53 -4 62 -22 l12 -23 14 26 c7 15 23 30 36 35 12 4 29 23 38 42 9
19 41 64 71 100 29 37 54 74 54 82 0 21 15 51 127 243 85 146 98 162 122 162
39 0 101 -45 101 -74 0 -20 6 -24 46 -30 92 -12 111 -8 229 54 109 57 201 90
251 90 22 0 22 -3 20 -85 -1 -64 -6 -90 -19 -106 -17 -19 -17 -22 -1 -67 14
-38 18 -86 19 -242 1 -130 5 -202 13 -217 7 -12 12 -41 12 -65 0 -61 22 -125
48 -144 12 -8 22 -21 22 -29 0 -8 8 -19 19 -24 14 -8 23 -5 41 14 14 15 35 25
52 25 27 0 68 30 68 50 0 5 9 18 20 28 33 30 39 170 11 260 -11 38 -21 86 -21
105 0 19 -9 45 -20 60 -29 37 -50 175 -50 332 0 141 5 175 25 175 8 0 34 27
60 61 46 60 46 61 31 92 -8 18 -16 60 -18 94 -3 61 -4 63 -31 63 -18 0 -39 12
-61 33 l-33 33 -7 145 c-3 79 -9 230 -12 334 l-7 191 44 13 c55 16 109 56 109
80 0 10 -9 26 -19 35 -17 15 -19 32 -19 121 0 57 -3 109 -7 115 -3 5 -18 10
-33 10 -21 0 -30 7 -39 30 -10 27 -16 30 -52 30 -34 0 -41 3 -41 19 0 11 -4
22 -9 26 -5 3 -12 19 -16 36 -4 17 -13 33 -21 36 -8 3 -14 13 -14 23 0 18 -46
30 -114 30 -15 0 -34 5 -42 11 -11 9 -16 6 -24 -15 -5 -15 -17 -26 -29 -26
-27 0 -37 -17 -50 -82 -7 -31 -22 -69 -33 -84 -20 -25 -20 -28 -5 -39 9 -7 17
-23 17 -35 0 -26 -180 -433 -243 -550 -22 -41 -83 -161 -136 -265 -107 -213
-338 -571 -378 -586 -17 -6 -23 -16 -23 -39 0 -16 -4 -30 -8 -30 -18 0 -78 34
-90 52 -21 29 -32 21 -32 -26 0 -33 -6 -50 -26 -71 -21 -23 -28 -25 -35 -14
-6 9 -7 -1 -3 -27 4 -27 -1 -66 -15 -118 -12 -42 -21 -88 -21 -103 0 -14 -13
-47 -29 -72 -16 -25 -36 -72 -45 -103 -29 -101 -35 -94 -222 227 -44 77 -107
185 -139 240 -81 139 -186 371 -252 555 -53 152 -167 536 -217 735 -44 176
-116 647 -116 757 l0 58 59 43 c68 49 190 132 311 213 47 30 90 61 95 68 6 6
30 27 55 46 115 87 214 179 288 266 19 21 73 80 121 129 88 91 186 197 251
271 47 54 267 370 304 437 16 28 45 84 65 122 21 39 62 117 93 175 56 104 123
263 147 350 7 25 26 86 42 135 56 177 69 240 75 356 l6 115 -25 17 -26 17 -55
-68z m503 -3949 c-1 -297 -5 -318 -65 -346 -21 -11 -48 -27 -59 -38 -38 -35
-131 -59 -227 -59 -124 0 -128 -16 80 342 140 240 223 358 252 358 19 0 20 -7
19 -257z m-1339 -1413 c0 -23 -4 -30 -20 -30 -14 0 -20 7 -20 23 0 27 7 37 27
37 8 0 13 -12 13 -30z"/>
<path d="M12066 9205 c4 -16 24 -85 45 -151 22 -67 39 -133 39 -146 0 -36 -39
-68 -187 -152 -186 -107 -210 -102 -126 30 28 45 53 74 64 74 21 0 35 17 44
52 10 37 -25 92 -118 191 -56 58 -80 77 -100 77 -37 0 -52 -31 -36 -74 10 -27
10 -41 -1 -67 -15 -39 -124 -230 -262 -461 -51 -86 -113 -192 -138 -235 -43
-73 -48 -78 -85 -84 -22 -3 -32 -7 -22 -8 27 -2 21 -37 -15 -86 -21 -27 -41
-44 -54 -45 -26 0 -54 -30 -54 -58 0 -12 -4 -22 -10 -22 -18 0 -11 -84 10
-117 11 -18 24 -33 28 -33 5 0 27 13 48 30 21 16 75 54 119 84 44 30 119 86
167 125 48 39 94 71 103 71 35 0 7 -45 -125 -200 -101 -119 -148 -167 -169
-173 -82 -21 -130 -179 -70 -233 17 -15 21 -14 67 25 26 23 59 41 71 41 l24 0
-7 -127 c-6 -107 -5 -133 8 -158 19 -36 20 -67 4 -83 -15 -15 -5 -26 43 -50
34 -17 34 -17 99 18 36 20 100 59 142 88 77 52 404 242 416 242 4 0 47 20 97
45 88 44 200 75 271 75 72 0 33 -52 -110 -146 -32 -22 -66 -44 -76 -49 -9 -6
-32 -25 -52 -43 -19 -19 -44 -39 -55 -45 -11 -7 -87 -56 -169 -110 -267 -175
-332 -214 -411 -244 -43 -17 -90 -34 -105 -37 -17 -4 -34 -18 -43 -36 -9 -17
-22 -30 -30 -30 -10 0 -15 -10 -15 -29 0 -54 -12 -89 -33 -98 -20 -9 -21 -16
-18 -89 1 -43 6 -82 9 -86 4 -3 25 0 47 8 22 7 46 14 53 14 8 0 32 16 54 34
22 19 54 38 70 41 16 4 84 44 151 90 130 88 256 156 372 199 39 15 84 33 100
41 65 31 215 84 300 105 95 24 192 24 220 0 20 -17 19 -66 -4 -136 -28 -87
-47 -118 -109 -186 -253 -274 -757 -466 -1162 -444 -69 4 -135 10 -147 13 -13
3 -23 0 -23 -5 0 -6 20 -14 45 -17 24 -4 50 -13 56 -21 6 -8 18 -14 25 -14 17
0 18 -37 2 -43 -7 -3 -1 -6 14 -6 15 -1 29 -5 32 -10 4 -5 25 -12 47 -16 23
-4 50 -16 60 -26 15 -15 34 -19 83 -19 64 0 76 -7 76 -45 0 -36 -131 -44 -325
-21 -60 7 -111 13 -112 12 -8 -6 116 -67 173 -86 38 -12 85 -32 104 -44 31
-19 53 -21 195 -24 88 -2 216 1 285 6 105 8 139 16 215 45 304 119 554 282
663 432 70 96 151 246 182 335 38 110 42 120 54 120 18 0 56 56 56 83 0 16
-24 47 -79 100 -44 42 -83 77 -86 77 -4 0 -32 20 -63 44 -70 53 -74 54 -203
66 -102 9 -104 8 -124 -14 -15 -18 -42 -27 -115 -41 -107 -19 -236 -58 -292
-86 -47 -24 -68 -24 -68 -1 0 31 215 142 274 142 13 0 40 19 65 44 41 42 47
66 15 66 -20 0 -18 44 4 61 27 22 60 39 76 39 8 0 21 8 28 19 21 29 72 50 150
61 49 7 77 16 86 28 7 9 24 29 37 44 l25 26 -30 25 c-16 14 -39 28 -50 32 -27
8 -27 58 0 92 25 32 22 43 -43 151 -31 52 -53 80 -59 74 -6 -6 -10 -42 -11
-80 -1 -54 3 -76 16 -90 9 -10 17 -25 17 -33 0 -9 7 -24 15 -35 26 -34 17 -39
-70 -41 -84 -3 -85 -2 -85 22 0 13 9 61 20 107 11 46 20 108 20 138 0 55 1 57
48 91 26 20 74 54 107 76 132 88 167 94 214 35 17 -23 44 -43 65 -49 33 -10
38 -9 56 14 11 14 20 32 20 40 0 24 -55 95 -139 178 -58 57 -81 87 -81 104 0
14 12 62 27 107 26 82 26 110 -2 120 -24 9 -65 -23 -65 -51 0 -46 -23 -76 -85
-111 -76 -42 -105 -44 -105 -9 0 14 39 107 86 206 48 100 87 195 88 213 1 27
-4 34 -44 54 -24 12 -53 22 -63 22 -10 0 -39 -20 -65 -45 -46 -43 -46 -45 -23
-51 21 -6 23 -11 19 -54 -6 -60 -92 -250 -181 -398 -83 -139 -108 -168 -151
-175 -37 -6 -167 -80 -314 -180 -95 -64 -145 -86 -197 -87 -15 0 -28 15 -48
55 -37 77 -35 104 13 160 22 25 53 65 70 90 23 34 37 44 62 47 24 2 38 11 53
36 22 36 214 156 300 188 28 10 89 42 136 72 l86 53 -9 52 c-6 29 -14 58 -20
65 -14 16 -87 15 -118 -3 -54 -31 -72 -22 -146 76 -38 50 -86 110 -107 133
l-38 41 7 -30z m-317 -632 c23 -13 31 -25 31 -45 0 -24 -14 -37 -97 -93 -153
-102 -174 -82 -70 65 67 97 80 104 136 73z m1127 -80 c26 -34 17 -58 -31 -81
-88 -43 -108 -22 -52 53 34 47 61 56 83 28z m-536 -205 c0 -34 -9 -42 -77 -77
-75 -37 -93 -39 -93 -8 0 32 12 46 66 77 63 36 104 39 104 8z m-646 -110 c3
-13 6 -42 6 -64 0 -41 -2 -43 -95 -113 -52 -39 -101 -71 -110 -71 -29 0 -15
38 41 111 130 170 145 183 158 137z m606 -23 c0 -22 -46 -93 -89 -138 -42 -45
-80 -67 -116 -67 -48 0 -25 57 59 143 63 65 146 100 146 62z m-270 -26 c0 -25
-33 -125 -47 -140 -10 -12 -13 -38 -11 -95 l3 -79 48 3 c46 3 47 3 47 -27 0
-17 5 -31 11 -31 22 0 234 182 243 208 4 15 12 35 17 44 5 10 6 24 3 33 -3 8
-3 26 0 40 9 35 51 35 60 0 4 -14 10 -25 14 -25 5 0 19 11 32 25 14 15 35 25
52 25 39 0 37 -30 -8 -116 -20 -38 -41 -93 -47 -122 l-12 -54 -130 -43 c-206
-67 -367 -149 -711 -360 -76 -47 -148 -85 -160 -85 -19 0 -22 7 -27 83 -3 45
-13 126 -22 180 -10 53 -14 104 -11 112 3 8 16 15 29 15 21 0 26 -8 40 -69 10
-38 17 -75 17 -82 0 -17 71 -119 83 -119 19 0 47 33 47 54 0 24 -45 122 -84
184 -14 23 -26 51 -26 64 0 14 34 55 98 120 109 109 132 119 160 66 26 -47 74
-95 102 -101 19 -4 30 2 48 23 l22 28 -20 64 c-30 95 -28 102 38 147 55 39
102 52 102 30z"/>
<path d="M11590 7823 c1 -40 33 -97 81 -146 71 -71 102 -85 124 -54 24 34 18
51 -34 100 -77 72 -171 127 -171 100z"/>
<path d="M10493 8870 c-13 -5 -23 -13 -23 -17 1 -12 22 -45 47 -73 100 -113
116 -137 127 -191 3 -16 45 -64 106 -122 55 -53 100 -100 100 -104 1 -5 -43
-50 -97 -101 -100 -96 -103 -101 -22 -48 26 17 59 39 75 49 16 9 45 29 64 43
30 22 42 25 80 19 84 -11 145 -28 169 -46 13 -11 27 -19 31 -19 4 0 3 24 -2
54 -8 46 -7 59 11 95 13 24 29 41 39 41 12 0 9 5 -10 18 -21 12 -28 25 -28 48
0 29 -8 35 -104 93 -58 34 -142 77 -188 95 -105 41 -157 68 -217 112 -46 32
-111 65 -128 63 -4 0 -18 -4 -30 -9z"/>
<path d="M12340 8705 c-8 -9 -37 -28 -64 -42 -28 -14 -119 -70 -202 -124 -84
-55 -156 -99 -161 -99 -6 0 -18 -9 -29 -21 -23 -25 -11 -49 32 -62 16 -4 39
-13 50 -19 19 -9 40 2 151 75 81 53 151 108 184 145 30 32 64 64 77 71 12 6
22 20 22 29 0 10 5 23 12 30 15 15 9 20 -28 28 -21 4 -34 1 -44 -11z"/>
<path d="M12834 8206 c-8 -20 33 -123 62 -156 12 -14 27 -35 33 -46 13 -27 71
-50 71 -30 0 8 7 19 15 26 8 7 15 21 15 32 0 21 -98 124 -158 166 -27 20 -33
21 -38 8z"/>
<path d="M10580 7939 c-169 -35 -213 -35 -218 -1 -4 26 -30 29 -71 7 -23 -11
-30 -23 -36 -60 -8 -56 -4 -63 94 -165 46 -47 71 -80 68 -91 -3 -11 8 -22 37
-35 33 -15 64 -18 164 -18 67 1 122 -2 122 -5 0 -22 -102 -271 -169 -411 -43
-91 -93 -202 -111 -247 -17 -45 -43 -94 -55 -108 -13 -14 -21 -25 -18 -25 4 0
-3 -10 -15 -23 -12 -12 -24 -42 -27 -67 -4 -25 -8 -54 -10 -66 -3 -14 3 -25
20 -34 14 -7 25 -22 25 -32 0 -14 8 -18 33 -18 34 -1 67 -22 86 -58 7 -13 21
-22 36 -22 15 0 25 -7 27 -19 5 -33 145 107 167 167 10 27 49 98 87 158 76
120 100 172 84 188 -6 6 -10 17 -10 26 0 20 36 97 50 105 5 3 10 13 10 21 0 8
8 27 19 42 10 15 40 65 67 110 27 46 57 96 66 110 34 53 39 62 32 62 -4 0 -15
-6 -23 -14 -9 -7 -26 -17 -38 -20 -28 -9 -32 18 -6 46 15 17 15 18 0 13 -9 -4
-28 -23 -43 -42 -15 -20 -62 -73 -105 -118 -42 -46 -86 -100 -97 -121 -19 -37
-196 -244 -209 -244 -3 0 1 8 8 17 8 10 -14 -7 -48 -36 -35 -29 -60 -57 -58
-61 3 -4 -3 -14 -13 -21 -15 -13 -16 -12 -3 4 16 21 -1 23 -19 2 -26 -31 -27
-13 -4 51 31 83 35 92 79 143 23 29 43 70 61 128 14 47 39 114 54 148 53 119
159 300 187 320 55 40 100 85 118 119 10 19 26 37 36 39 19 5 33 57 15 57 -30
0 -66 26 -66 48 0 12 -5 22 -12 22 -6 0 -19 6 -27 14 -12 11 -172 49 -192 45
-2 0 -69 -14 -149 -30z"/>
<path d="M8535 7001 c-60 -28 -155 -121 -155 -152 0 -23 -15 -32 -167 -103
-225 -104 -320 -161 -503 -309 -225 -180 -355 -324 -473 -524 -127 -215 -187
-353 -187 -433 0 -22 9 -73 20 -112 11 -40 20 -84 20 -98 0 -14 16 -48 36 -76
26 -39 47 -57 86 -74 36 -15 53 -19 61 -11 6 6 29 11 50 11 47 0 160 39 209
73 20 13 51 30 69 38 19 7 63 37 99 66 36 29 97 69 135 89 39 21 87 50 107 66
20 16 76 49 124 73 48 25 90 49 93 53 13 18 229 110 271 116 25 3 66 11 91 18
25 6 58 8 74 4 26 -7 27 -9 23 -61 -4 -43 -14 -68 -50 -122 -25 -37 -51 -85
-57 -105 -16 -49 -78 -143 -131 -198 -23 -25 -39 -38 -35 -30 9 17 -82 -82
-103 -112 -8 -11 -9 -18 -3 -18 16 0 13 -18 -6 -39 -29 -32 -39 -45 -45 -62
-7 -17 -66 -49 -91 -49 -8 0 -27 -19 -43 -42 -35 -54 -154 -178 -170 -178 -7
0 -28 -18 -47 -40 -19 -22 -41 -40 -51 -40 -9 0 -21 -11 -26 -25 -5 -14 -16
-25 -24 -25 -8 0 -28 -16 -43 -35 -15 -19 -33 -35 -40 -35 -7 0 -17 -9 -23
-19 -5 -11 -58 -56 -116 -100 -133 -101 -176 -113 -409 -117 -173 -2 -197 -11
-122 -43 44 -19 57 -35 57 -72 0 -23 -14 -24 -89 -5 -95 24 -136 27 -156 12
-17 -12 -14 -16 36 -53 147 -108 224 -152 327 -183 83 -25 102 -34 102 -50 0
-18 -9 -20 -97 -22 -92 -3 -96 -4 -70 -17 48 -25 34 -42 -30 -36 l-58 4 65
-13 c93 -20 388 -37 440 -25 47 11 106 39 165 79 22 15 63 39 90 53 28 14 83
50 122 81 39 31 77 56 83 56 22 0 126 92 145 126 10 19 22 34 26 34 5 0 24 25
44 55 19 30 38 55 43 55 18 0 122 110 122 129 0 12 21 37 53 63 73 59 127 122
127 146 0 11 11 27 24 35 45 30 272 418 301 517 4 14 29 72 55 130 73 159 103
267 98 342 -6 91 -56 238 -79 238 -15 0 -19 8 -19 40 0 33 -4 41 -24 46 -13 3
-28 16 -34 29 -14 31 -67 53 -145 61 -77 8 -268 -33 -332 -71 -24 -14 -50 -25
-58 -25 -27 0 -195 -89 -314 -167 -68 -44 -156 -97 -197 -117 -89 -44 -247
-86 -336 -89 l-65 -2 -3 39 c-4 42 16 92 48 121 11 10 20 22 20 27 0 9 21 38
124 173 40 53 88 105 97 105 4 0 36 29 73 65 36 36 72 65 79 65 7 0 18 9 25
20 7 11 18 20 26 20 16 0 134 75 158 100 9 10 41 26 70 35 29 10 89 33 133 52
66 29 87 34 123 28 91 -14 116 6 141 110 7 28 25 63 40 80 16 17 32 47 35 68
4 23 21 54 43 78 l36 40 -21 52 c-29 69 -28 87 3 87 34 0 32 16 -5 35 -38 20
-66 19 -115 -4z m-239 -1887 c-3 -9 -6 -18 -6 -20 0 -2 -7 -4 -15 -4 -18 0
-19 12 -3 28 17 17 31 15 24 -4z"/>
<path d="M9595 6830 c-19 -21 -41 -26 -47 -11 -2 6 -26 7 -58 3 -51 -7 -55 -9
-61 -39 -3 -18 -16 -41 -29 -51 -20 -16 -21 -21 -11 -57 13 -46 13 -121 2
-150 -11 -26 5 -45 37 -45 l25 0 -8 -307 c-4 -170 -11 -348 -16 -398 -4 -49
-15 -192 -23 -318 -8 -125 -18 -242 -21 -260 -30 -176 -98 -533 -103 -541 -3
-6 -5 -25 -3 -42 2 -31 1 -31 -50 -38 -44 -6 -55 -4 -73 13 -34 32 -49 26 -26
-11 25 -41 25 -96 1 -127 -16 -21 -17 -28 -6 -45 8 -12 19 -61 25 -111 6 -49
16 -95 22 -102 7 -9 9 -44 4 -103 -7 -87 5 -169 27 -197 5 -7 18 -13 28 -13
14 0 21 -9 26 -30 6 -34 21 -44 74 -54 28 -5 39 -2 54 14 24 26 78 27 104 1
23 -23 31 -18 31 21 0 16 9 36 20 45 11 10 20 29 20 43 0 14 12 66 26 115 14
51 25 112 24 141 -1 50 57 524 65 532 2 3 34 1 70 -3 58 -6 67 -10 75 -31 12
-30 25 -30 120 -2 80 24 85 28 251 204 76 80 95 94 124 94 18 0 25 5 25 20 0
11 7 20 15 20 18 0 38 -46 32 -71 -3 -10 7 -29 24 -45 33 -31 39 -77 13 -92
-15 -8 -11 -16 25 -54 22 -25 41 -49 41 -54 0 -5 16 -33 35 -63 19 -29 35 -55
35 -57 0 -3 15 -37 34 -77 33 -72 69 -163 81 -203 3 -12 21 -32 40 -45 23 -16
36 -34 40 -58 8 -44 89 -137 131 -151 18 -6 35 -17 38 -25 3 -8 16 -15 29 -15
20 0 27 8 37 45 10 36 17 45 34 45 13 0 32 13 45 31 19 26 23 44 23 105 0 63
-4 81 -25 112 -13 21 -34 57 -47 82 -12 24 -45 71 -71 105 -27 33 -49 67 -49
75 0 18 -60 80 -77 80 -15 0 -53 53 -53 74 0 9 -6 19 -14 22 -8 3 -29 40 -47
82 -17 43 -35 82 -39 87 -19 24 -70 173 -70 203 0 19 9 45 20 59 11 14 20 36
20 48 0 33 20 85 33 85 8 0 9 3 1 8 -6 4 -13 15 -17 25 -3 9 -16 17 -27 17
-11 0 -20 7 -20 15 0 8 -9 19 -21 26 -16 8 -20 18 -17 40 3 17 -1 30 -9 33 -7
3 -13 12 -13 21 0 12 -9 14 -52 9 -46 -5 -56 -3 -72 15 -11 12 -29 21 -40 21
-18 0 -47 53 -176 316 -85 173 -158 330 -161 349 -3 19 -13 43 -22 53 -23 25
-22 62 1 62 10 0 28 7 40 16 18 12 22 25 22 64 0 27 -4 51 -9 54 -5 3 -12 23
-16 43 -4 21 -20 58 -36 82 -16 25 -29 52 -29 61 0 27 -24 41 -59 34 -23 -5
-35 -2 -44 9 -18 24 -65 33 -73 13 -12 -30 -46 -17 -99 39 -29 30 -60 55 -69
55 -9 0 -16 7 -16 15 0 21 -24 19 -45 -5z m426 -875 c113 -252 129 -298 129
-379 0 -62 -2 -67 -31 -88 -17 -13 -38 -39 -46 -59 -26 -65 -211 -179 -291
-179 -28 0 -28 8 -2 205 11 83 29 224 41 315 18 142 61 358 76 383 15 25 43
-19 124 -198z"/>
<path d="M11649 3663 c-13 -16 -12 -17 4 -4 16 13 21 21 13 21 -2 0 -10 -8
-17 -17z"/>
<path d="M11594 3618 l-29 -33 33 29 c30 28 37 36 29 36 -2 0 -16 -15 -33 -32z"/>
<path d="M11450 3509 c-35 -31 -35 -31 -3 -9 18 11 35 25 38 30 10 16 2 11
-35 -21z"/>
<path d="M11364 3444 l-39 -35 43 32 c38 30 48 39 39 39 -2 0 -21 -16 -43 -36z"/>
</g>
</svg>
